Coordinates
version=1
nRows=29
nColumns=22
inDegrees=yes

Units are S.I. units (second, meters, Newtons, ...)
If the header above contains a line with 'inDegrees', this indicates whether rotational values are in degrees (yes) or radians (no).

endheader
time	pelvis_tilt	pelvis_list	pelvis_rotation	pelvis_tx	pelvis_ty	pelvis_tz	hip_flexion_r	hip_adduction_r	hip_rotation_r	knee_angle_r	ankle_angle_r	subtalar_angle_r	hip_flexion_l	hip_adduction_l	hip_rotation_l	knee_angle_l	ankle_angle_l	subtalar_angle_l	lumbar_extension	lumbar_bending	lumbar_rotation
      1.54000000	      7.05887103	     -2.03345432	     83.21857619	      1.01028518	      0.88366538	      0.40041113	    -15.88251763	      3.66738689	     -9.32351819	    -11.11295244	     17.58174372	      7.82569765	     33.44939078	     -8.10448008	    -22.55161548	    -21.09620838	      5.47583543	    -10.10299373	     -7.98569017	      0.79687353	      7.63112862
      1.55000000	      6.83387099	     -2.14043048	     83.67222578	      1.00892729	      0.88228944	      0.38881891	    -16.09842452	      3.30155440	     -9.24883485	    -11.88065554	     17.07829800	      8.21630644	     33.84256600	     -7.90998233	    -22.74637770	    -22.68658484	      4.57656529	    -11.67189475	     -7.53802397	      0.45454371	      7.35196114
      1.56000000	      6.52881271	     -2.23802799	     84.21422760	      1.00726666	      0.88124085	      0.37694969	    -16.27547538	      2.86635334	     -9.23224003	    -12.74365196	     16.42175304	      8.61327598	     34.21595218	     -7.53336269	    -22.63093256	    -24.30016622	      3.72755586	    -13.21947141	     -7.05930091	      0.02081026	      6.99052807
      1.57000000	      6.14754459	     -2.30760025	     84.83291747	      1.00526810	      0.88058706	      0.36484913	    -16.41372761	      2.35793401	     -9.27008676	    -13.73481626	     15.56867459	      9.02557219	     34.52790896	     -6.96498673	    -22.22036271	    -25.87033560	      3.02030766	    -14.60011677	     -6.58420319	     -0.49546565	      6.57030917
      1.58000000	      5.68652978	     -2.35484119	     85.51893426	      1.00293266	      0.88035097	      0.35254671	    -16.49223502	      1.77305295	     -9.33677998	    -14.87742128	     14.49581792	      9.46800723	     34.75127287	     -6.19476886	    -21.55159020	    -27.33105052	      2.49660541	    -15.69440790	     -6.11208335	     -1.09765854	      6.10548743
      1.59000000	      5.17405809	     -2.35978187	     86.27794607	      1.00022911	      0.88053122	      0.34013375	    -16.49266658	      1.13027184	     -9.49467101	    -16.24336896	     13.24036351	      9.92025938	     34.85482623	     -5.24632053	    -20.65414915	    -28.66093400	      2.18071831	    -16.41032354	     -5.68922124	     -1.74761015	      5.60821260
      1.60000000	      4.61657834	     -2.33794133	     87.06299833	      0.99726618	      0.88112633	      0.32761453	    -16.40240723	      0.43774641	     -9.60228941	    -17.80624653	     11.70109665	     10.43203505	     34.81282240	     -4.17663000	    -19.69720442	    -29.82222955	      2.09748626	    -16.90658901	     -5.29454348	     -2.44379350	      5.10945777
      1.61000000	      4.05955063	     -2.27587703	     87.86164791	      0.99406488	      0.88210369	      0.31513689	    -16.18116725	     -0.27176666	     -9.68275906	    -19.64363307	      9.92025212	     10.91735044	     34.60156381	     -3.04214353	    -18.69836704	    -30.78960041	      2.21034396	    -17.15483413	     -4.97267493	     -3.12879131	      4.64646187
      1.62000000	      3.53049173	     -2.19211817	     88.65575538	      0.99070222	      0.88338966	      0.30278913	    -15.78597010	     -0.97084302	     -9.70391237	    -21.76496613	      7.88125627	     11.25417655	     34.23471570	     -1.90258246	    -17.72966489	    -31.55333597	      2.48135609	    -17.21675982	     -4.71314348	     -3.77156660	      4.23035674
      1.63000000	      3.04889339	     -2.10242186	     89.40530550	      0.98727858	      0.88491822	      0.29063565	    -15.18104826	     -1.64460138	     -9.59079495	    -24.16461100	      5.56428975	     11.59360302	     33.71997329	     -0.81722103	    -16.86180607	    -32.10338414	      2.93283647	    -17.19272769	     -4.49857365	     -4.35059576	      3.86968694
      1.64000000	      2.63327121	     -2.01643660	     90.09061188	      0.98389013	      0.88661756	      0.27876810	    -14.34009956	     -2.26954962	     -9.31623204	    -26.83718105	      3.00758013	     11.83614454	     33.07429596	      0.17032731	    -16.12134941	    -32.43759083	      3.53033348	    -17.09614829	     -4.32990916	     -4.84953942	      3.58350480
      1.65000000	      2.27931712	     -1.92963968	     90.72320282	      0.98054601	      0.88842310	      0.26725200	    -13.26475371	     -2.85490775	     -8.97189894	    -29.76761565	      0.27129953	     11.81789883	     32.31916190	      1.05378537	    -15.52894864	    -32.58598036	      4.14341349	    -16.98879811	     -4.22031586	     -5.27164982	      3.35197587
      1.66000000	      1.97363941	     -1.87274904	     91.28259334	      0.97729948	      0.89023824	      0.25611805	    -11.93278652	     -3.40332260	     -8.48541285	    -32.91647449	     -2.54939162	     11.77862389	     31.48924374	      1.84136492	    -15.07543085	    -32.54272350	      4.81282571	    -16.88291185	     -4.13113785	     -5.63260561	      3.15336476
      1.67000000	      1.69768130	     -1.78925948	     91.78131272	      0.97415060	      0.89209114	      0.24535256	    -10.43982186	     -3.93463344	     -7.94357468	    -36.21354348	     -5.41444304	     11.60138954	     30.55078423	      2.53664446	    -14.81104974	    -32.35419029	      5.48801217	    -16.79931305	     -4.13269983	     -5.95301543	      2.96872831
      1.68000000	      1.43969207	     -1.78886523	     92.19777004	      0.97115101	      0.89375159	      0.23506173	     -8.64609371	     -4.45354406	     -7.27495047	    -39.67889645	     -8.08499900	     11.48496161	     29.65066519	      3.16898529	    -14.64556773	    -32.03880938	      6.08846722	    -16.75455735	     -4.09719679	     -6.25387381	      2.85707408
      1.69000000	      1.18794234	     -1.77200662	     92.57944215	      0.96823441	      0.89535693	      0.22512410	     -6.73976965	     -4.95378942	     -6.56105455	    -43.16458014	    -10.55961104	     11.30821289	     28.69696402	      3.75201535	    -14.60343761	    -31.64053259	      6.68096966	    -16.71158128	     -4.13622787	     -6.54078079	      2.70225271
      1.70000000	      0.94285912	     -1.77478183	     92.93536113	      0.96539632	      0.89681821	      0.21556560	     -4.68923885	     -5.42973260	     -5.80485193	    -46.64343041	    -12.65585758	     11.08884744	     27.75929078	      4.30089379	    -14.61186927	    -31.19937140	      7.21861225	    -16.66213841	     -4.20405015	     -6.81733256	      2.54011857
      1.71000000	      0.70850900	     -1.77330720	     93.29925421	      0.96258714	      0.89818413	      0.20633404	     -2.56342533	     -5.86015434	     -5.02589694	    -50.03196821	    -14.29678397	     10.79516193	     26.82452817	      4.82731517	    -14.61912036	    -30.73736302	      7.69871054	    -16.58600100	     -4.32121217	     -7.07351982	      2.32314932
      1.72000000	      0.50833249	     -1.80460722	     93.69094292	      0.95978273	      0.89938309	      0.19742822	     -0.33719967	     -6.21194412	     -4.23000382	    -53.29943886	    -15.35773184	     10.38405795	     25.95476288	      5.32852363	    -14.53325884	    -30.28788361	      8.15671281	    -16.47590730	     -4.43766192	     -7.28824749	      2.08528950
      1.73000000	      0.33957658	     -1.83531398	     94.14623345	      0.95690252	      0.90049392	      0.18878046	      1.91232194	     -6.48579789	     -3.45881301	    -56.37765846	    -15.88596045	      9.89903299	     25.11665653	      5.80960702	    -14.37100595	    -29.86601807	      8.56027525	    -16.33342631	     -4.58287030	     -7.45356939	      1.75102622
      1.74000000	      0.20874916	     -1.86964324	     94.67940480	      0.95390357	      0.90151865	      0.18035097	      4.16912350	     -6.68308818	     -2.73436321	    -59.23641278	    -15.91248969	      9.43748967	     24.31158399	      6.27735452	    -14.08569471	    -29.47021262	      8.93480791	    -16.17060160	     -4.73798471	     -7.56167302	      1.34353441
      1.75000000	      0.08337253	     -1.88729834	     95.31454017	      0.95068031	      0.90250936	      0.17209760	      6.37870014	     -6.85193265	     -2.07387079	    -61.84219653	    -15.48970340	      9.17450688	     23.49484187	      6.77854909	    -13.67640057	    -29.06784663	      9.25496701	    -16.02443398	     -4.92766005	     -7.63819055	      0.83195531
      1.76000000	      0.01081809	     -1.92382802	     96.04803132	      0.94724399	      0.90340132	      0.16402738	      8.57807048	     -6.94623498	     -1.46763555	    -64.17898566	    -14.71190805	      8.98679087	     22.72083348	      7.26276716	    -13.12163665	    -28.69010478	      9.56830398	    -15.88317087	     -5.09333433	     -7.63289993	      0.27765580
      1.77000000	     -0.03322759	     -1.96951078	     96.87289227	      0.94357001	      0.90422624	      0.15610644	     10.74231718	     -7.00099742	     -0.89877297	    -66.22919160	    -13.69585261	      8.87865588	     21.95530877	      7.75592264	    -12.43334045	    -28.30394663	      9.85632272	    -15.76715429	     -5.24263230	     -7.57530199	     -0.29632389
      1.78000000	     -0.07394114	     -1.98699521	     97.79601682	      0.93961957	      0.90506308	      0.14826703	     12.79889801	     -7.05197720	     -0.36836706	    -67.96379323	    -12.46777462	      8.84256842	     21.12924345	      8.27365201	    -11.65244646	    -27.87721944	     10.12841315	    -15.69514073	     -5.41267196	     -7.48594648	     -0.94177444
      1.79000000	     -0.10455750	     -1.98949571	     98.79653569	      0.93543500	      0.90589774	      0.14051266	     14.76238350	     -7.08912660	      0.15867490	    -69.37988945	    -11.09831064	      8.78064785	     20.25438466	      8.79876873	    -10.78273811	    -27.40845124	     10.38278106	    -15.66641018	     -5.58297468	     -7.36513944	     -1.60656733
      1.80000000	     -0.12889488	     -1.96343721	     99.86383438	      0.93103980	      0.90677141	      0.13283534	     16.60729387	     -7.11349735	      0.69859553	    -70.46687580	     -9.62118155	      8.65390592	     19.30928839	      9.32191754	     -9.83300436	    -26.89073725	     10.60566349	    -15.67601106	     -5.76879328	     -7.21969153	     -2.27965686
      1.81000000	     -0.14532022	     -1.90104448	    100.98624259	      0.92647382	      0.90770373	      0.12520876	     18.31499517	     -7.11984512	      1.26309000	    -71.21905603	     -8.05328733	      8.50370860	     18.28483766	      9.82125170	     -8.83409267	    -26.32857318	     10.81719082	    -15.69287962	     -5.97346860	     -7.05155262	     -2.96515605
      1.82000000	     -0.15617261	     -1.80604454	    102.15526647	      0.92177924	      0.90871244	      0.11767332	     19.89255859	     -7.11253023	      1.84968115	    -71.64084192	     -6.48166046	      8.14332167	     17.18499534	     10.30145428	     -7.72331635	    -25.71235425	     10.95843687	    -15.76465251	     -6.19974281	     -6.87161857	     -3.61128608
